<svg width="139" height="30" viewBox="0 0 139 30" fill="none" xmlns="http://www.w3.org/2000/svg">
<g clip-path="url(#clip0_1053_1165)">
<path d="M30.8295 0.0788574H37.1462V6.27956H30.8295V0.0788574ZM30.8295 27.9824H37.1462V10.1526H30.8295V27.9824ZM0.0341797 27.9824H6.35093V0.0788574H0.0341797V27.9824ZM41.0943 6.28448H56.8866V0.0837715H41.0943V6.28448ZM20.5638 27.9824H26.8806V0.0788574H20.5638V27.9824ZM41.0935 27.9824H47.4102V10.1526H41.0935V27.9824ZM10.2965 21.7826H16.6132V0.0788574H10.2965V21.7826ZM63.2033 0.0788574H65.1457L66.4405 3.76439C66.7484 4.67103 67.1305 6.36883 67.1305 6.36883H67.1622C67.1622 6.36883 67.5444 4.68086 67.8414 3.76439L69.1171 0.0788574H71.102V7.82994H69.7328V3.78732C69.7328 2.94374 69.8279 1.37043 69.8279 1.37043H69.8071C69.8071 1.37043 69.4784 2.79796 69.2231 3.56865L67.7263 7.82749H66.5373L65.0305 3.56865C64.776 2.79796 64.4465 1.37043 64.4465 1.37043H64.4256C64.4256 1.37043 64.5216 2.94374 64.5216 3.78732V7.82994H63.2058L63.2033 0.0788574ZM74.1239 7.96508C73.0201 7.96508 72.1925 7.40242 72.1925 6.31887C72.1925 5.05842 73.1686 4.75621 74.5169 4.59896C75.4505 4.4843 75.9177 4.33851 75.9177 3.8381C75.9177 3.35898 75.5782 3.03629 74.899 3.03629C74.1481 3.03629 73.7743 3.38028 73.7418 3.93229H72.4686C72.5112 2.98388 73.2754 2.11982 74.8882 2.11982C75.4148 2.08625 75.9405 2.19803 76.4058 2.44251C76.6749 2.60896 76.8924 2.84462 77.0346 3.12387C77.1769 3.40312 77.2384 3.71529 77.2126 4.02647V6.95852C77.2126 7.41716 77.2961 7.65631 77.4246 7.73985V7.83322H76.1188C75.9969 7.61219 75.9314 7.36546 75.9278 7.11413H75.9069C75.708 7.39332 75.4397 7.61802 75.1275 7.76694C74.8154 7.91586 74.4705 7.98406 74.1239 7.96508ZM75.9495 5.81191V4.9929C75.6045 5.17336 75.2315 5.29651 74.8456 5.35736C74.018 5.51379 73.5399 5.68005 73.5399 6.29512C73.5399 6.8889 73.9963 7.06581 74.5161 7.06581C74.6952 7.08105 74.8756 7.06022 75.0462 7.00459C75.2168 6.94895 75.374 6.8597 75.5082 6.74229C75.6424 6.62488 75.7508 6.4818 75.8267 6.32181C75.9025 6.16182 75.9443 5.98831 75.9495 5.81191ZM78.0937 6.12477H79.3886C79.4945 6.79144 80.0152 7.07318 80.7369 7.07318C81.4794 7.07318 81.8298 6.76032 81.8298 6.31232C81.8298 5.76031 81.2567 5.65712 80.3656 5.49331C79.3043 5.28529 78.2964 5.04532 78.2964 3.78487C78.2964 2.73244 79.2092 2.12801 80.5358 2.12801C82.0426 2.12801 82.796 2.79469 82.9345 3.76603H81.6488C81.5537 3.28691 81.1924 3.02892 80.5241 3.02892C79.8984 3.02892 79.5688 3.30984 79.5688 3.69559C79.5688 4.187 80.1528 4.27873 81.0122 4.4327C82.0843 4.6309 83.1456 4.8807 83.1456 6.23452C83.1456 7.4016 82.1269 8.01586 80.726 8.01586C79.1124 8.00685 78.178 7.24681 78.0937 6.12149V6.12477ZM83.7822 6.12477H85.0771C85.183 6.79144 85.7037 7.07318 86.4254 7.07318C87.1679 7.07318 87.5183 6.76032 87.5183 6.31232C87.5183 5.76031 86.9452 5.65712 86.0541 5.49331C84.9928 5.28529 83.9849 5.04532 83.9849 3.78487C83.9849 2.73244 84.8977 2.12801 86.2243 2.12801C87.7311 2.12801 88.4845 2.79469 88.623 3.76603H87.339C87.2438 3.28691 86.8826 3.02892 86.2143 3.02892C85.5877 3.02892 85.259 3.30984 85.259 3.69559C85.259 4.187 85.843 4.27873 86.7024 4.4327C87.7745 4.6309 88.8358 4.8807 88.8358 6.23452C88.8358 7.4016 87.817 8.01586 86.4162 8.01586C84.8026 8.00685 83.8665 7.24681 83.7822 6.12149V6.12477ZM91.4581 7.96917C90.3542 7.96917 89.5266 7.40652 89.5266 6.32297C89.5266 5.06252 90.5028 4.7603 91.851 4.60305C92.7847 4.48839 93.2519 4.34261 93.2519 3.8422C93.2519 3.36308 92.9123 3.04039 92.2332 3.04039C91.4823 3.04039 91.1085 3.38437 91.076 3.93638H89.8027C89.8453 2.98797 90.6096 2.12392 92.2223 2.12392C92.749 2.09034 93.2747 2.20212 93.74 2.44661C94.0091 2.61306 94.2265 2.84871 94.3688 3.12796C94.511 3.40721 94.5726 3.71938 94.5468 4.03057V6.95852C94.5468 7.41716 94.6302 7.65631 94.7587 7.73985V7.83322H93.453C93.3311 7.61219 93.2655 7.36546 93.2619 7.11413H93.241C93.0419 7.39369 92.7732 7.61862 92.4606 7.76755C92.1479 7.91649 91.8017 7.98448 91.4547 7.96508L91.4581 7.96917ZM93.2803 5.81191V4.9929C92.9353 5.17334 92.5623 5.29649 92.1764 5.35736C91.3488 5.51379 90.8707 5.68005 90.8707 6.29512C90.8707 6.8889 91.3271 7.06581 91.8469 7.06581C92.026 7.08105 92.2064 7.06022 92.377 7.00459C92.5476 6.94895 92.7048 6.8597 92.839 6.74229C92.9732 6.62488 93.0816 6.4818 93.1575 6.32181C93.2334 6.16182 93.2751 5.98831 93.2803 5.81191ZM95.4987 5.0617C95.4729 4.68079 95.528 4.29876 95.6605 3.93985C95.793 3.58093 96 3.25297 96.2684 2.97675C96.5369 2.70053 96.8609 2.48209 97.2199 2.33528C97.5789 2.18847 97.965 2.11649 98.3539 2.12392C98.9597 2.07404 99.562 2.25335 100.038 2.62516C100.513 2.99697 100.826 3.53315 100.912 4.12393H99.5953C99.5536 3.83759 99.4039 3.57705 99.1759 3.39385C98.9478 3.21064 98.6581 3.11812 98.3639 3.13457C97.3768 3.13457 96.8671 3.93638 96.8671 5.0617C96.8671 6.15589 97.3768 6.96835 98.3639 6.96835C98.5254 6.97923 98.6876 6.95741 98.8402 6.90424C98.9928 6.85107 99.1327 6.76768 99.2511 6.65925C99.3696 6.55082 99.4641 6.41965 99.5287 6.27389C99.5934 6.12814 99.6268 5.97089 99.627 5.81191H100.943C100.927 6.1234 100.848 6.42859 100.709 6.70907C100.57 6.98955 100.375 7.23952 100.135 7.44392C99.8946 7.64833 99.615 7.80292 99.3125 7.8984C99.0101 7.99388 98.691 8.02826 98.3747 7.99948C97.9845 8.00733 97.597 7.9357 97.2364 7.78911C96.8759 7.64253 96.5502 7.42416 96.28 7.1478C96.0097 6.87144 95.8008 6.54309 95.6663 6.18347C95.5319 5.82385 95.4748 5.44077 95.4987 5.05842V5.0617ZM103.15 3.07151H103.182C103.361 2.77375 103.618 2.52861 103.926 2.36175C104.234 2.1949 104.582 2.11247 104.934 2.1231C105.198 2.10191 105.463 2.13766 105.712 2.22785C105.96 2.31803 106.185 2.46046 106.371 2.64513C106.557 2.82981 106.7 3.05224 106.789 3.29682C106.878 3.5414 106.912 3.80219 106.887 4.06087V7.8283H105.54V4.27545C105.554 4.13219 105.536 3.98765 105.486 3.85218C105.437 3.71672 105.357 3.59369 105.254 3.49192C105.15 3.39015 105.025 3.31216 104.887 3.26355C104.749 3.21494 104.601 3.1969 104.455 3.21074C104.278 3.20989 104.103 3.24508 103.94 3.31411C103.778 3.38313 103.631 3.48449 103.511 3.61178C103.39 3.73907 103.298 3.88952 103.239 4.05365C103.181 4.21779 103.158 4.39203 103.171 4.56538V7.82585H101.823V0.0788574H103.171V2.16241C103.172 2.31884 103.158 2.74555 103.15 3.06905V3.07151ZM109.992 7.97818C109.726 7.999 109.459 7.96237 109.209 7.87087C108.959 7.77937 108.732 7.63522 108.545 7.44856C108.358 7.2619 108.215 7.03726 108.126 6.79045C108.036 6.54363 108.003 6.28063 108.029 6.01994V2.2697H109.376V5.83238C109.361 5.97276 109.379 6.11461 109.427 6.2476C109.475 6.38059 109.553 6.50138 109.654 6.60117C109.756 6.70096 109.879 6.77724 110.015 6.82447C110.15 6.87169 110.295 6.88867 110.438 6.87416C110.612 6.87492 110.785 6.83975 110.945 6.77092C111.105 6.70209 111.249 6.60112 111.367 6.47452C111.485 6.34792 111.574 6.19848 111.63 6.03583C111.685 5.87319 111.705 5.70094 111.689 5.53017V2.2697H113.024V7.83322H111.718V7.04042H111.697C111.527 7.33211 111.279 7.57304 110.98 7.73769C110.681 7.90234 110.342 7.98459 109.999 7.97573L109.992 7.97818ZM113.897 6.12395H115.192C115.298 6.79062 115.819 7.07236 116.541 7.07236C117.283 7.07236 117.634 6.7595 117.634 6.3115C117.634 5.75949 117.06 5.6563 116.169 5.4925C115.108 5.28447 114.1 5.0445 114.1 3.78405C114.1 2.73162 115.013 2.12719 116.34 2.12719C117.846 2.12719 118.6 2.79387 118.738 3.76521H117.454C117.358 3.28609 116.998 3.0281 116.33 3.0281C115.703 3.0281 115.374 3.30902 115.374 3.69477C115.374 4.18618 115.958 4.27791 116.818 4.43188C117.89 4.63008 118.951 4.87988 118.951 6.2337C118.951 7.40078 117.932 8.01504 116.531 8.01504C114.922 8.00685 113.987 7.24681 113.902 6.12149L113.897 6.12395ZM119.66 5.05924C119.635 4.68199 119.689 4.30372 119.82 3.9479C119.95 3.59208 120.153 3.26632 120.417 2.99083C120.68 2.71534 120.999 2.49602 121.353 2.34646C121.706 2.19691 122.088 2.12032 122.473 2.12146C122.836 2.10823 123.198 2.17106 123.535 2.30577C123.872 2.44049 124.176 2.644 124.426 2.90279C125.01 3.59663 125.299 4.48447 125.233 5.38193H120.999C121.094 6.34017 121.624 6.98636 122.559 6.98636C122.819 7.01325 123.082 6.95684 123.308 6.82552C123.533 6.69419 123.709 6.49497 123.81 6.25745H125.126C124.965 6.79376 124.62 7.25929 124.151 7.576C123.681 7.89271 123.115 8.04136 122.547 7.99702C122.156 8.00904 121.766 7.94039 121.403 7.79549C121.041 7.65059 120.713 7.43267 120.441 7.15578C120.17 6.87889 119.96 6.54918 119.826 6.18793C119.693 5.82667 119.637 5.4419 119.664 5.05842L119.66 5.05924ZM121.019 4.549H123.849C123.796 3.63253 123.298 3.0797 122.48 3.0797C121.597 3.07888 121.14 3.67348 121.023 4.54818L121.019 4.549ZM128.14 7.88318C127.227 7.88318 126.601 7.56049 126.601 6.58096V3.17389H125.735V2.26724H126.603V0.496551H127.929V2.26724H129.065V3.17389H127.929V6.28611C127.929 6.69562 128.152 6.807 128.534 6.807C128.68 6.80498 128.826 6.791 128.97 6.76523H129.033V7.79636C128.74 7.85223 128.442 7.88102 128.144 7.88236L128.14 7.88318ZM131.971 7.88318C131.058 7.88318 130.432 7.56049 130.432 6.58096V3.17389H129.562V2.26724H130.441V0.496551H131.767V2.26724H132.903V3.17389H131.767V6.28611C131.767 6.69562 131.99 6.807 132.372 6.807C132.518 6.80498 132.664 6.791 132.808 6.76523H132.871V7.79636C132.576 7.85264 132.276 7.88143 131.975 7.88236L131.971 7.88318ZM133.531 6.12231H134.826C134.932 6.78898 135.453 7.07072 136.173 7.07072C136.916 7.07072 137.266 6.75786 137.266 6.30986C137.266 5.75785 136.693 5.65466 135.802 5.49086C134.741 5.28283 133.733 5.04286 133.733 3.78241C133.733 2.72998 134.646 2.12556 135.972 2.12556C137.479 2.12556 138.233 2.79223 138.371 3.76357H137.09C136.995 3.28445 136.634 3.02646 135.966 3.02646C135.34 3.02646 135.01 3.30738 135.01 3.69314C135.01 4.18454 135.594 4.27627 136.454 4.43024C137.526 4.62844 138.587 4.87824 138.587 6.23206C138.587 7.39914 137.568 8.0134 136.168 8.0134C134.554 8.00685 133.62 7.24681 133.535 6.12149L133.531 6.12231ZM63.1967 21.4721H60.7345V20.2322H67.1447V21.4721H64.6784V27.9833H63.2033L63.1967 21.4721ZM66.5507 25.2126C66.5255 24.8349 66.5797 24.4562 66.7101 24.1C66.8404 23.7438 67.044 23.4177 67.3082 23.1421C67.5724 22.8665 67.8915 22.6471 68.2458 22.4978C68.6001 22.3484 68.9818 22.2722 69.3674 22.274C69.7308 22.2607 70.0929 22.3236 70.4296 22.4583C70.7664 22.593 71.0701 22.7965 71.3206 23.0553C71.9042 23.7491 72.1931 24.637 72.1274 25.5344H67.8931C67.9882 26.4927 68.5197 27.1389 69.4533 27.1389C69.7141 27.1657 69.9767 27.1093 70.2021 26.978C70.4276 26.8467 70.6039 26.6475 70.7048 26.4099H72.0206C71.8591 26.9463 71.5148 27.4118 71.0453 27.7285C70.5757 28.0452 70.0096 28.1939 69.4417 28.1495C69.0502 28.1618 68.6605 28.0933 68.2976 27.9486C67.9348 27.8038 67.6069 27.586 67.3351 27.3092C67.0633 27.0323 66.8537 26.7027 66.7197 26.3414C66.5858 25.9801 66.5304 25.5953 66.5574 25.2117L66.5507 25.2126ZM67.909 24.7023H70.7324C70.679 23.7858 70.1809 23.233 69.3632 23.233C68.4888 23.2322 68.0325 23.826 67.9156 24.7007L67.909 24.7023ZM72.7807 25.2126C72.7548 24.8316 72.8099 24.4496 72.9424 24.0907C73.0749 23.7318 73.2819 23.4038 73.5503 23.1276C73.8188 22.8514 74.1428 22.6329 74.5018 22.4861C74.8608 22.3393 75.2469 22.2673 75.6357 22.2748C76.2416 22.2249 76.8439 22.4042 77.3195 22.776C77.795 23.1478 78.1078 23.684 78.1938 24.2748H76.8781C76.8363 23.9884 76.6866 23.7279 76.4586 23.5447C76.2306 23.3615 75.9408 23.269 75.6466 23.2854C74.6596 23.2854 74.1498 24.0872 74.1498 25.2126C74.1498 26.3067 74.6596 27.1192 75.6466 27.1192C75.8082 27.1301 75.9703 27.1083 76.1229 27.0551C76.2756 27.0019 76.4154 26.9185 76.5339 26.8101C76.6523 26.7017 76.7468 26.5705 76.8115 26.4247C76.8761 26.279 76.9096 26.1217 76.9098 25.9628H78.2255C78.21 26.2743 78.1304 26.5794 77.9915 26.8599C77.8526 27.1404 77.6572 27.3904 77.4173 27.5948C77.1773 27.7992 76.8977 27.9538 76.5953 28.0493C76.2928 28.1447 75.9738 28.1791 75.6574 28.1503C75.2681 28.1572 74.8814 28.085 74.5219 27.9382C74.1623 27.7913 73.8376 27.573 73.5681 27.297C73.2986 27.021 73.0902 26.6933 72.956 26.3344C72.8218 25.9756 72.7646 25.5933 72.7882 25.2117L72.7807 25.2126ZM80.4323 23.2224H80.464C80.6426 22.9246 80.8995 22.6795 81.2078 22.5126C81.516 22.3458 81.8643 22.2633 82.2161 22.274C82.4799 22.2528 82.7452 22.2885 82.9934 22.3787C83.2416 22.4689 83.4667 22.6113 83.6528 22.796C83.839 22.9807 83.9816 23.2031 84.0709 23.4477C84.1601 23.6923 84.1937 23.953 84.1693 24.2117V27.9792H82.8219V24.4263C82.836 24.283 82.8176 24.1385 82.7681 24.003C82.7186 23.8676 82.6391 23.7445 82.5354 23.6428C82.4318 23.541 82.3064 23.463 82.1684 23.4144C82.0304 23.3658 81.8832 23.3478 81.7372 23.3616C81.5601 23.3607 81.3847 23.3959 81.2222 23.465C81.0596 23.534 80.9134 23.6353 80.7927 23.7626C80.6721 23.8899 80.5796 24.0404 80.5212 24.2045C80.4627 24.3686 80.4396 24.5429 80.4532 24.7162V27.9775H79.1124V20.2264H80.464V22.31C80.464 22.4713 80.449 22.8989 80.439 23.2215L80.4323 23.2224ZM86.6732 22.4206V23.233H86.7049C86.881 22.9287 87.1395 22.6781 87.4516 22.5088C87.7637 22.3396 88.1174 22.2583 88.4737 22.274C88.7374 22.2528 89.0027 22.2885 89.2509 22.3787C89.4991 22.4689 89.7242 22.6113 89.9103 22.796C90.0965 22.9807 90.2392 23.2031 90.3284 23.4477C90.4176 23.6923 90.4512 23.953 90.4268 24.2117V27.9792H89.0785V24.4263C89.0926 24.283 89.0743 24.1385 89.0247 24.003C88.9752 23.8676 88.8958 23.7445 88.7921 23.6428C88.6884 23.541 88.5631 23.463 88.4251 23.4144C88.2871 23.3658 88.1399 23.3478 87.9939 23.3616C87.8168 23.3607 87.6414 23.3959 87.4789 23.465C87.3163 23.534 87.1701 23.6353 87.0494 23.7626C86.9287 23.8899 86.8363 24.0404 86.7778 24.2045C86.7194 24.3686 86.6963 24.5429 86.7099 24.7162V27.9775H85.3624V22.414L86.6732 22.4206ZM91.3212 25.2126C91.3417 24.6569 91.5281 24.1195 91.8573 23.6671C92.1864 23.2146 92.6438 22.8672 93.1726 22.6679C93.7013 22.4687 94.2781 22.4264 94.8311 22.5463C95.3841 22.6663 95.889 22.9432 96.283 23.3426C96.6769 23.7421 96.9426 24.2464 97.0469 24.7928C97.1512 25.3393 97.0895 25.9038 96.8696 26.4161C96.6496 26.9284 96.2811 27.366 95.8098 27.6743C95.3385 27.9827 94.7853 28.1482 94.2189 28.1503C93.8279 28.1595 93.4392 28.0889 93.0774 27.9432C92.7156 27.7974 92.3886 27.5795 92.1169 27.3034C91.8452 27.0272 91.6348 26.6988 91.499 26.3388C91.3632 25.9787 91.305 25.595 91.3279 25.2117L91.3212 25.2126ZM95.7257 25.2126C95.7257 24.0872 95.1951 23.2543 94.208 23.2543C93.221 23.2543 92.6904 24.0881 92.6904 25.2126C92.6904 26.337 93.2102 27.1503 94.208 27.1503C95.2059 27.1503 95.7324 26.3264 95.7324 25.2117L95.7257 25.2126ZM98.0618 20.233H99.4201V27.9841H98.0685L98.0618 20.233ZM100.386 25.2126C100.407 24.6569 100.593 24.1195 100.922 23.6671C101.251 23.2146 101.709 22.8672 102.238 22.6679C102.766 22.4687 103.343 22.4264 103.896 22.5463C104.449 22.6663 104.954 22.9432 105.348 23.3426C105.742 23.7421 106.008 24.2464 106.112 24.7928C106.216 25.3393 106.155 25.9038 105.935 26.4161C105.715 26.9284 105.346 27.366 104.875 27.6743C104.404 27.9827 103.85 28.1482 103.284 28.1503C102.893 28.1597 102.504 28.0893 102.142 27.9437C101.78 27.798 101.453 27.5802 101.181 27.304C100.909 27.0278 100.698 26.6993 100.563 26.3391C100.427 25.979 100.368 25.5951 100.391 25.2117L100.386 25.2126ZM104.791 25.2126C104.791 24.0872 104.26 23.2543 103.273 23.2543C102.286 23.2543 101.755 24.0881 101.755 25.2126C101.755 26.337 102.275 27.1503 103.273 27.1503C104.271 27.1503 104.796 26.3264 104.796 25.2117L104.791 25.2126ZM106.882 25.0045C106.882 23.3378 107.922 22.2748 109.28 22.2748C109.615 22.244 109.952 22.3094 110.25 22.4629C110.547 22.6164 110.793 22.8515 110.957 23.1396H110.978V22.4206H112.284V27.6188C112.302 27.9422 112.248 28.2656 112.126 28.5662C112.003 28.8668 111.814 29.1372 111.573 29.3584C111.008 29.7626 110.318 29.9615 109.62 29.921C108.102 29.921 107.169 29.3166 107.033 28.2642H108.331C108.426 28.7228 108.861 28.9521 109.604 28.9521C110.506 28.9521 110.973 28.5353 110.973 27.7335V27.5975C110.973 27.2953 110.994 27.0144 111.005 26.8268H110.962C110.802 27.1007 110.567 27.3256 110.284 27.4764C110.001 27.6272 109.681 27.698 109.36 27.681C109.013 27.6797 108.671 27.6075 108.354 27.4691C108.038 27.3307 107.754 27.1291 107.522 26.8771C107.289 26.6251 107.112 26.3284 107.003 26.0057C106.894 25.683 106.854 25.3415 106.887 25.0029L106.882 25.0045ZM111.021 24.9628C111.021 23.9734 110.553 23.3059 109.588 23.3059C108.707 23.3059 108.219 23.9611 108.219 24.9832C108.219 26.0054 108.72 26.6606 109.599 26.6606C110.633 26.6597 111.025 25.93 111.025 24.9611L111.021 24.9628ZM113.515 29.8178V28.7441H113.589C113.774 28.7811 113.962 28.7987 114.151 28.7965C114.344 28.8215 114.539 28.771 114.694 28.6559C114.849 28.5407 114.951 28.3703 114.979 28.1815C115.011 27.8711 114.989 27.5577 114.915 27.2543L112.962 22.4222H114.395L115.328 25.0062C115.573 25.6941 115.806 26.7359 115.806 26.7359H115.826C115.826 26.7359 116.081 25.6835 116.315 25.0062L117.216 22.4222H118.575L116.378 28.2978C115.911 29.5263 115.423 29.8817 114.499 29.8817C114.172 29.8776 113.845 29.8557 113.52 29.8162L113.515 29.8178ZM63.2033 10.1526H64.6784V17.9037H63.2033V10.1526ZM67.3633 12.3402V13.1527H67.395C67.5708 12.8495 67.8282 12.5997 68.139 12.4307C68.4499 12.2617 68.8021 12.1799 69.1571 12.1944C69.4209 12.1732 69.6862 12.209 69.9344 12.2992C70.1826 12.3894 70.4077 12.5318 70.5938 12.7165C70.7799 12.9011 70.9226 13.1236 71.0119 13.3682C71.1011 13.6127 71.1347 13.8735 71.1103 14.1322V17.8996H69.7629V14.3468C69.777 14.2035 69.7586 14.059 69.7091 13.9235C69.6595 13.7881 69.5801 13.665 69.4764 13.5633C69.3727 13.4615 69.2474 13.3835 69.1094 13.3349C68.9714 13.2863 68.8242 13.2682 68.6782 13.2821C68.5011 13.2812 68.3257 13.3164 68.1632 13.3854C68.0006 13.4545 67.8544 13.5558 67.7337 13.6831C67.6131 13.8104 67.5206 13.9609 67.4622 14.125C67.4037 14.2891 67.3806 14.4634 67.3942 14.6367V17.898H66.0459V12.3345L67.3633 12.3402ZM71.9371 16.1953H73.232C73.338 16.862 73.8586 17.1437 74.5795 17.1437C75.322 17.1437 75.6725 16.8308 75.6725 16.3828C75.6725 15.8308 75.0993 15.7276 74.2082 15.5638C73.1469 15.3558 72.139 15.1158 72.139 13.8554C72.139 12.803 73.0518 12.1985 74.3784 12.1985C75.8852 12.1985 76.6386 12.8652 76.7771 13.8365H75.4931C75.398 13.3574 75.0367 13.0994 74.3684 13.0994C73.7426 13.0994 73.4131 13.3804 73.4131 13.7661C73.4131 14.2575 73.9971 14.3492 74.8565 14.5032C75.9286 14.7014 76.9899 14.9512 76.9899 16.305C76.9899 17.4721 75.9711 18.0864 74.5703 18.0864C72.955 18.0831 72.0222 17.3231 71.938 16.1977L71.9371 16.1953ZM79.7907 17.9561C78.878 17.9561 78.2522 17.6335 78.2522 16.6539V13.2469H77.382V12.3402H78.2522V10.5695H79.5788V12.3402H80.7143V13.2469H79.5788V16.3591C79.5788 16.7686 79.8016 16.88 80.1837 16.88C80.3298 16.878 80.4755 16.864 80.6192 16.8382H80.6826V17.8693C80.3891 17.9264 80.0908 17.9563 79.7916 17.9586L79.7907 17.9561ZM81.6371 10.1526H83.0171V11.4344H81.6371V10.1526ZM81.658 12.3402H83.0063V17.9037H81.658V12.3402ZM86.3069 17.9553C85.3941 17.9553 84.7684 17.6326 84.7684 16.6531V13.246H83.8982V12.3394H84.7684V10.5687H86.095V12.3394H87.2305V13.246H86.0958V16.3583C86.0958 16.7678 86.3186 16.8792 86.7007 16.8792C86.8468 16.8771 86.9925 16.8632 87.1362 16.8374H87.1996V17.8685C86.9048 17.9261 86.605 17.9563 86.3044 17.9586L86.3069 17.9553ZM90.0956 18.0487C89.8297 18.0695 89.5623 18.0329 89.3123 17.9414C89.0623 17.8499 88.8358 17.7057 88.6487 17.5191C88.4616 17.3324 88.3184 17.1078 88.2292 16.861C88.14 16.6141 88.1069 16.3511 88.1324 16.0904V12.3402H89.4799V15.9029C89.4651 16.0433 89.4824 16.1851 89.5305 16.3181C89.5786 16.4511 89.6563 16.5719 89.758 16.6717C89.8596 16.7715 89.9827 16.8478 90.1181 16.895C90.2536 16.9422 90.3981 16.9592 90.5411 16.9447C90.7159 16.9454 90.8888 16.9103 91.0489 16.8414C91.2089 16.7726 91.3525 16.6716 91.4704 16.545C91.5883 16.4184 91.6779 16.269 91.7334 16.1063C91.7889 15.9437 91.8091 15.7715 91.7926 15.6007V12.3402H93.1276V17.9037H91.8218V17.1142H91.801C91.63 17.4074 91.3811 17.6494 91.0809 17.8146C90.7807 17.9797 90.4404 18.0618 90.0964 18.052L90.0956 18.0487ZM96.4315 17.9553C95.5188 17.9553 94.893 17.6326 94.893 16.6531V13.246H94.0228V12.3394H94.893V10.5687H96.2196V12.3394H97.3551V13.246H96.2196V16.3583C96.2196 16.7678 96.4424 16.8792 96.8245 16.8792C96.9706 16.8771 97.1163 16.8632 97.26 16.8374H97.3234V17.8685C97.03 17.9259 96.7316 17.956 96.4324 17.9586L96.4315 17.9553ZM98.0168 15.1322C97.9917 14.755 98.046 14.3767 98.1761 14.0209C98.3062 13.6651 98.5094 13.3393 98.7732 13.0638C99.0369 12.7883 99.3555 12.569 99.7092 12.4194C100.063 12.2699 100.444 12.1933 100.829 12.1944C101.193 12.1812 101.555 12.244 101.892 12.3787C102.228 12.5135 102.532 12.717 102.782 12.9758C103.366 13.6696 103.655 14.5574 103.589 15.4549H99.355C99.4502 16.4131 99.9816 17.0593 100.915 17.0593C101.176 17.0862 101.439 17.0298 101.664 16.8985C101.89 16.7672 102.066 16.5679 102.167 16.3304H103.482C103.321 16.8667 102.977 17.3323 102.507 17.649C102.038 17.9657 101.471 18.1143 100.904 18.07C100.512 18.083 100.122 18.0152 99.7586 17.8711C99.3953 17.7269 99.0668 17.5095 98.7945 17.2329C98.5221 16.9564 98.3118 16.6268 98.1773 16.2655C98.0428 15.9042 97.987 15.5193 98.0134 15.1355L98.0168 15.1322ZM99.3751 14.622H102.198C102.145 13.7055 101.647 13.1527 100.829 13.1527C99.9449 13.1559 99.4869 13.7497 99.3726 14.6244L99.3751 14.622ZM106.634 15.1322C106.654 14.5766 106.841 14.0392 107.17 13.5867C107.499 13.1343 107.956 12.7868 108.485 12.5876C109.014 12.3883 109.591 12.346 110.144 12.466C110.697 12.586 111.202 12.8629 111.596 13.2623C111.99 13.6617 112.255 14.166 112.359 14.7125C112.464 15.259 112.402 15.8235 112.182 16.3358C111.962 16.8481 111.594 17.2857 111.122 17.594C110.651 17.9023 110.098 18.0679 109.531 18.07C109.14 18.0804 108.751 18.0109 108.388 17.8659C108.026 17.7209 107.698 17.5037 107.425 17.2278C107.152 16.952 106.941 16.6236 106.804 16.2634C106.668 15.9033 106.609 15.5192 106.631 15.1355L106.634 15.1322ZM111.038 15.1322C111.038 14.0069 110.508 13.174 109.521 13.174C108.534 13.174 108.003 14.0077 108.003 15.1322C108.003 16.2567 108.523 17.07 109.521 17.07C110.518 17.07 111.036 16.2502 111.036 15.1355L111.038 15.1322ZM113.766 13.2567H112.895V12.3402H113.766V11.7251C113.744 11.5046 113.771 11.282 113.846 11.0731C113.922 10.8642 114.043 10.6741 114.201 10.5163C114.632 10.2148 115.161 10.0777 115.687 10.1305C115.867 10.1305 116.08 10.1412 116.292 10.1617V11.151C115.4 11.1092 115.114 11.2034 115.114 11.8062V12.3378H116.282V13.2542H115.114V17.9005H113.766V13.2567Z" fill="#ADADAD"/>
</g>
<defs>
<clipPath id="clip0_1053_1165">
<rect width="138.553" height="29.8422" fill="white" transform="translate(0.0341797 0.0788574)"/>
</clipPath>
</defs>
</svg>
