<svg width="20" height="21" viewBox="0 0 20 21" fill="none" xmlns="http://www.w3.org/2000/svg">
<path fill-rule="evenodd" clip-rule="evenodd" d="M9.2864 0.417363C9.38536 0.471131 9.46777 0.550727 9.52481 0.647618C9.58185 0.744509 9.61135 0.855044 9.61017 0.967374V6.19654C9.61018 6.29093 9.58854 6.38408 9.5469 6.46885C9.50525 6.55363 9.4447 6.62779 9.36989 6.68566L7.65125 8.01096C8.45966 8.57214 9.61017 9.36671 9.61017 10.5002C9.61017 11.7007 8.56148 12.548 7.62071 13.0737L9.35156 14.2975C9.51446 14.4163 9.61017 14.602 9.61017 14.8049V20.0341C9.61017 20.2614 9.49003 20.4704 9.29251 20.577C9.19641 20.6285 9.08788 20.6524 8.97897 20.6461C8.87006 20.6398 8.76503 20.6036 8.67551 20.5415L2.08706 15.9334C1.64782 15.638 1.28589 15.2422 1.03153 14.779C0.77717 14.3157 0.637776 13.7985 0.625 13.2706C0.625 12.5125 0.96099 11.5992 2.08095 10.5246C1.22469 9.79596 0.625 8.91311 0.625 7.73089C0.625 6.31628 2.27237 5.10362 3.28441 4.45315L8.65718 0.471147C8.74671 0.404843 8.85299 0.364692 8.96413 0.355193C9.07526 0.345694 9.18685 0.367221 9.2864 0.417363ZM3.16528 6.04736C2.72748 6.40558 1.82336 7.08041 1.82336 7.73089C1.82336 8.6381 2.37418 9.19927 3.02071 9.73L4.81774 8.55489L6.0161 9.27132L4.02766 10.4951L6.49463 12.268C7.15439 11.9869 8.41181 11.3719 8.41181 10.5002C8.41181 9.57576 6.93855 9.00241 6.28591 8.55489C5.24944 7.83845 3.83624 7.16971 3.17037 6.04736H3.16528ZM3.04514 11.2826C1.95572 12.273 1.82336 12.9367 1.82336 13.2706C1.82336 13.7069 2.04532 14.4223 2.75191 14.9125H2.75802L3.2671 15.2707C3.42978 14.8287 3.6847 14.4261 4.015 14.0896C4.34531 13.753 4.74349 13.4901 5.18326 13.3183L6.06905 14.19C5.35125 14.5127 4.608 15.1631 4.47055 15.4737C4.39043 15.6495 4.35344 15.8419 4.36263 16.0348L8.41181 18.8701V15.1266C6.61669 13.8539 4.82778 12.5726 3.04514 11.2826ZM4.14678 5.33093C4.55404 6.20263 5.842 6.77598 6.59645 7.28946L8.41181 5.88601V2.17293L4.14678 5.33702V5.33093ZM11.1252 0.423452C11.2201 0.372457 11.3272 0.348334 11.4349 0.353701C11.5426 0.359067 11.6467 0.393718 11.7361 0.453895L18.0252 4.76367C19.0739 5.47401 19.7917 6.39949 19.7917 7.73089C19.7917 8.82279 19.1034 9.74218 18.354 10.4525C19.0128 10.9904 19.7917 11.8854 19.7917 13.2706C19.7917 15.0018 18.5281 15.8319 17.6953 16.3748L17.4255 16.5473C16.9704 16.8639 13.4435 19.3298 11.7483 20.5415C11.6588 20.6036 11.5537 20.6398 11.4448 20.6461C11.3359 20.6524 11.2274 20.6285 11.1313 20.577C11.0334 20.5238 10.9517 20.4453 10.8947 20.3498C10.8377 20.2543 10.8076 20.1452 10.8075 20.0341V14.8049C10.8075 14.6141 10.8971 14.4295 11.0468 14.3148L12.7298 13.0199C11.7961 12.4415 10.8075 11.7778 10.8075 10.5002C10.8075 9.37889 11.9631 8.50719 12.7542 7.91558L11.0651 6.69784C10.9855 6.64054 10.9206 6.56522 10.8758 6.47808C10.831 6.39093 10.8076 6.29445 10.8075 6.19654V0.967374C10.8057 0.857281 10.8344 0.748828 10.8905 0.653941C10.9465 0.559053 11.0277 0.481407 11.1252 0.429541V0.423452ZM13.7968 8.66245C13.3356 8.99632 12.0049 9.78379 12.0049 10.5002C12.0049 11.4917 13.4669 12.0407 14.1084 12.4344L14.1318 12.4466C15.2578 13.2178 16.6649 13.8734 17.4021 15.0911C18.0964 14.6081 18.5933 14.1544 18.5933 13.2706C18.5933 12.2974 17.9773 11.6824 17.4082 11.2593L15.5989 12.6556L14.4016 12.0407L16.3778 10.5185L13.8019 8.66753L13.7968 8.66245ZM17.3603 9.72493L12.0049 5.87384V2.11306L15.8687 4.75758C16.498 5.18785 14.647 6.60854 14.4016 6.81149L15.5989 7.42645C16.2709 6.87137 16.7729 6.49488 17.0783 5.58767L17.3664 5.78454C18.0669 6.26148 18.5943 6.81758 18.5943 7.73089C18.5943 8.54271 17.9111 9.22261 17.3603 9.72493ZM16.4012 15.772C15.8626 14.8171 14.6826 14.3036 13.8263 13.712L12.0059 15.1154V18.858L16.4073 15.772H16.4012Z" fill="#D97757"/>
</svg>
