<svg width="159" height="32" viewBox="0 0 159 32" fill="none" xmlns="http://www.w3.org/2000/svg">
<g clip-path="url(#clip0_1053_1167)">
<path d="M89.3504 6.33179C89.6228 6.33179 89.6909 6.67221 89.6909 6.94455C89.7589 8.03391 89.827 9.05519 89.827 10.1446C89.8951 11.1658 89.8951 12.1871 89.8951 13.2084C90.5079 12.7318 91.0526 12.2552 91.7334 12.0509C92.8228 11.5743 94.1164 11.5743 95.2057 12.119C96.3632 12.7318 97.1121 13.8211 97.5206 14.9786C97.8611 16.136 97.9972 17.3616 97.9291 18.519C97.793 19.9488 97.4526 21.3105 96.6355 22.468C96.1589 23.1488 95.5462 23.6935 94.7291 23.9658C93.4355 24.4424 92.0738 24.2382 90.9164 23.5573C90.576 23.3531 90.2355 23.0126 89.9632 22.7403C89.827 23.1488 89.7589 23.5573 89.6228 23.9658C89.01 23.9658 88.4653 24.0339 87.8526 23.8977C88.0568 22.9446 88.0568 21.9233 88.1249 20.9701C88.193 17.4977 88.1249 14.0254 88.1249 10.6211C88.0568 9.25945 88.1249 7.89774 87.9206 6.60413C88.3291 6.46796 88.8738 6.33179 89.3504 6.33179ZM93.844 13.4807C93.2994 13.3446 92.7547 13.3446 92.2781 13.4126C91.3249 13.5488 90.576 14.2297 89.9632 14.9105C89.9632 15.1148 89.9632 15.3871 89.9632 15.5914V21.1063C89.9632 21.3105 90.0994 21.4467 90.2355 21.5148C91.1887 22.3999 92.5504 22.8084 93.776 22.536C94.3887 22.3999 94.9334 21.9914 95.2057 21.4467C95.6823 20.6977 95.8185 19.8126 95.8866 18.9275C95.9547 18.2467 96.0228 17.5658 95.9547 16.9531C95.9547 16.2041 95.7504 15.3871 95.3419 14.7063C95.0015 14.0254 94.4568 13.6169 93.844 13.4807ZM101.674 6.80838C102.014 6.67221 102.491 6.67221 102.831 6.87647C103.172 7.08072 103.444 7.42115 103.58 7.76157C103.784 8.5786 103.172 9.4637 102.355 9.53179C101.742 9.59987 101.061 9.25945 100.857 8.5786C100.584 7.96583 100.993 7.08072 101.674 6.80838ZM45.3675 8.23817C46.2526 7.6254 47.3419 7.14881 48.4313 7.14881C49.5887 7.14881 50.7462 7.21689 51.7675 7.69349C52.176 7.89774 52.5845 8.102 52.993 8.37434C52.7206 8.85094 52.3802 9.19136 52.0398 9.59987C51.6313 9.39562 51.2228 9.12328 50.7462 8.91902C49.6568 8.51051 48.3632 8.44243 47.2738 8.91902C46.3206 9.25945 45.5717 10.0084 45.0951 10.8935C44.8228 11.5743 44.5504 12.2552 44.4143 12.936C44.2781 13.6169 44.2781 14.2977 44.21 14.9786C44.21 15.8637 44.1419 16.8169 44.21 17.702C44.3462 18.9956 44.8228 20.2211 45.6398 21.1743C46.3887 22.0594 47.4781 22.536 48.6355 22.6722C49.2483 22.6722 49.793 22.6722 50.4058 22.536C51.0866 22.3999 51.6994 21.9914 52.3802 21.719C52.7206 22.0594 53.0611 22.536 53.4015 22.9446C52.9249 23.2169 52.4483 23.4892 51.9036 23.6935C50.5419 24.2382 48.976 24.3063 47.5462 24.102C46.4568 23.8977 45.5036 23.3531 44.6866 22.6722C43.7334 21.8552 43.0526 20.7658 42.644 19.6084C42.3717 18.7914 42.2355 17.9743 42.1675 17.1573C42.1675 16.5446 42.0313 15.9318 42.1675 15.2509C42.1675 14.0935 42.3717 12.868 42.8483 11.7786C43.3249 10.4169 44.1419 9.12328 45.3675 8.23817Z" fill="#ADADAD"/>
<path d="M0.431152 0V32H32.2269V0H0.431152ZM22.0822 9.19149C20.5843 12.1191 19.0184 15.0468 17.4524 17.9745C17.3843 18.1106 17.3843 18.1787 17.3843 18.3149C17.3843 20.4255 17.3843 22.5362 17.3843 24.5787C16.6354 24.5787 15.8865 24.5787 15.1375 24.5787C15.1375 22.5362 15.1375 20.4936 15.1375 18.4511C15.1375 18.2468 15.1375 17.9745 15.0014 17.7702C13.5716 15.1149 12.2099 12.4596 10.7801 9.73617C10.4397 9.1234 10.0992 8.51064 9.8269 7.82979C9.96307 7.82979 10.0992 7.7617 10.2354 7.7617C10.9163 7.7617 11.5971 7.7617 12.278 7.82979C12.4141 7.82979 12.4141 7.89787 12.4822 7.96596C13.5035 10.0766 14.5248 12.2553 15.6141 14.434C15.8184 14.9106 16.0226 15.3191 16.295 15.7277C16.4992 15.3872 16.7035 15.0468 16.9077 14.6383C18.0652 12.3234 19.2226 10.0766 20.3801 7.7617C21.129 7.7617 21.878 7.69362 22.695 7.82979C22.5588 8.44255 22.2865 8.78298 22.0822 9.19149Z" fill="#ADADAD"/>
<path d="M132.652 8.91898C133.265 8.71472 133.878 8.57855 134.559 8.44238C134.422 9.59983 134.354 10.7573 134.354 11.9828C135.307 11.9828 136.329 11.9828 137.282 12.0509C137.146 12.5275 136.942 12.936 136.737 13.3445C135.92 13.3445 135.103 13.3445 134.218 13.3445C134.218 14.4339 134.218 15.5232 134.218 16.6126C134.218 17.4296 134.286 18.3147 134.218 19.1998C134.218 20.153 134.218 21.1743 134.286 22.1275C134.286 22.536 134.695 22.8083 135.035 22.9445C135.648 23.0807 136.261 23.0126 136.873 22.8764C137.01 23.2169 137.078 23.6254 137.078 23.9658C136.533 24.2381 135.92 24.3062 135.307 24.3743C134.49 24.3743 133.537 24.2381 132.924 23.6254C132.448 23.1488 132.448 22.3998 132.38 21.7871C132.312 20.4254 132.38 18.9956 132.312 17.6339C132.312 16.2041 132.312 14.8424 132.312 13.4126C131.767 13.4126 131.222 13.4126 130.746 13.4126C130.746 12.936 130.746 12.4594 130.746 12.0509C131.29 12.0509 131.767 12.0509 132.312 12.0509C132.516 10.9615 132.516 9.87217 132.652 8.91898ZM60.4819 11.6424C60.9585 11.6424 61.5032 11.6424 61.9798 11.7786C63.0692 12.119 64.0224 12.936 64.5671 13.8892C65.0436 14.7743 65.3841 15.7275 65.4522 16.7488C65.5202 18.1105 65.5883 19.4722 65.1117 20.7658C64.7032 21.9913 63.8862 23.0807 62.7288 23.6934C61.5713 24.3062 60.2096 24.3743 58.9841 24.0339C57.8947 23.7615 56.9415 23.0126 56.2607 22.0594C55.5798 21.0381 55.3075 19.8126 55.3075 18.519C55.3075 17.3615 55.2394 16.136 55.6479 14.9786C55.9883 13.8892 56.7373 12.8679 57.7585 12.1871C58.2351 11.9147 58.7117 11.6424 59.2564 11.5743C59.6649 11.6424 60.0734 11.6424 60.4819 11.6424ZM59.5288 13.2083C58.916 13.3445 58.3032 13.753 57.9628 14.2977C57.4862 15.1147 57.35 16.0679 57.35 17.0211C57.2819 17.702 57.35 18.3828 57.4181 19.0637C57.5543 19.8807 57.6905 20.7658 58.099 21.5147C58.5075 22.3317 59.3926 22.6722 60.2777 22.7403C61.0947 22.8083 61.9798 22.6041 62.5926 21.9232C63.0692 21.3786 63.3415 20.7658 63.4096 20.0169C63.5458 19.1317 63.5458 18.2466 63.4777 17.4296C63.4777 16.5445 63.3415 15.5913 63.0011 14.7062C62.7968 14.1615 62.3883 13.753 61.9117 13.4807C61.1628 13.0722 60.3458 13.0041 59.5288 13.2083ZM68.7883 12.0509C69.333 11.8466 69.8777 11.7105 70.4905 11.6424C70.6947 12.1871 70.8309 12.7317 70.899 13.3445C71.3075 13.1403 71.5798 12.7998 71.9883 12.5956C72.8053 11.9828 73.8266 11.6424 74.8479 11.6424C75.0522 11.6424 75.3245 11.7105 75.5288 11.8466C75.8692 12.0509 76.2096 12.1871 76.55 12.4594C76.8224 12.7317 77.0266 13.1403 77.2309 13.4807C77.7075 13.2764 78.0479 12.8679 78.4564 12.5956C79.1373 12.119 79.9543 11.7105 80.9075 11.6424C81.7245 11.5743 82.5415 11.8466 83.1543 12.3913C83.4266 12.6637 83.699 12.936 83.8351 13.2764C83.9713 13.6169 84.0394 13.9573 84.0394 14.3658C84.1756 16.2722 84.1075 18.2466 84.1756 20.153C84.1756 21.4466 84.1756 22.7403 84.1756 24.0339C83.5628 24.0339 82.8819 24.0339 82.2692 24.0339C82.2692 22.1275 82.2692 20.153 82.2692 18.2466C82.2692 17.0211 82.2692 15.7956 82.2011 14.502C82.133 14.0934 81.9287 13.753 81.5883 13.4807C81.2479 13.2764 80.7713 13.2764 80.2947 13.2764C79.5458 13.3445 78.933 13.8211 78.3202 14.2977C78.0479 14.502 77.7756 14.7743 77.5032 14.9786C77.4351 15.0466 77.4351 15.1828 77.4351 15.2509C77.4351 18.1786 77.4351 21.0381 77.4351 23.9658C76.8224 23.9658 76.1415 23.9658 75.5288 23.9658V17.1573C75.5288 16.6126 75.5288 16.0679 75.5288 15.5232C75.5288 14.9786 75.5288 14.3658 75.3245 13.8892C74.916 13.3445 74.1671 13.2083 73.5543 13.4126C72.6011 13.6169 71.7841 14.2296 71.0351 14.9105C70.899 14.9786 70.899 15.1147 70.899 15.2509C70.899 18.1786 70.899 21.1062 70.899 24.0339C70.3543 24.0339 69.8096 24.0339 69.2649 24.0339C69.1968 21.0381 69.2649 18.0424 69.1288 15.0466C69.1288 14.3658 69.1288 13.6849 68.9926 13.0041C68.9245 12.6637 68.7883 12.3232 68.7883 12.0509ZM101.265 11.9828C101.878 11.9147 102.49 11.7786 103.103 11.6424C103.171 13.3445 103.171 15.0466 103.171 16.6807C103.171 19.1317 103.171 21.5147 103.171 23.9658C102.559 23.9658 101.878 23.9658 101.265 23.9658C101.265 20.4934 101.265 17.0211 101.265 13.5488C101.265 13.0722 101.197 12.4594 101.265 11.9828ZM125.707 11.7105C127.001 11.9147 128.09 13.1403 128.159 14.502C128.227 16.4764 128.159 18.519 128.159 20.4934V21.1062C128.159 21.5147 128.159 21.9232 128.295 22.2637C128.363 22.6722 128.771 22.8764 129.044 23.0807C128.771 23.4211 128.567 23.8977 128.227 24.17C128.022 24.3743 127.75 24.17 127.614 24.0339C127.137 23.6934 126.865 23.2169 126.593 22.6722C126.184 22.8764 125.912 23.2849 125.435 23.4892C124.754 23.9658 123.937 24.17 123.052 24.17C122.303 24.17 121.554 24.0339 120.873 23.6934C119.784 23.0807 119.171 21.8551 119.239 20.6296C119.239 19.4722 119.852 18.3147 120.737 17.6339C121.827 16.8169 123.256 16.5445 124.618 16.4083C125.231 16.3403 125.844 16.3403 126.524 16.3403C126.524 15.7275 126.524 15.1147 126.388 14.502C126.32 14.0254 126.048 13.4807 125.571 13.2083C125.027 12.936 124.346 12.8679 123.733 13.0041C122.576 13.1403 121.486 13.6169 120.533 14.2977C120.261 13.9573 119.988 13.6169 119.784 13.2083C119.648 13.0041 119.852 12.8679 119.988 12.7998C121.282 12.119 122.644 11.5062 124.142 11.5062H124.754C125.095 11.6424 125.367 11.6424 125.707 11.7105ZM124.89 17.77C124.278 17.8381 123.733 17.8381 123.12 17.9743C122.439 18.1786 121.827 18.5871 121.418 19.1998C121.214 19.5403 121.214 19.9488 121.214 20.3573C121.214 20.7658 121.146 21.2424 121.35 21.6509C121.486 22.0594 121.827 22.4679 122.235 22.6041C122.712 22.8083 123.256 22.8083 123.801 22.8083C124.414 22.7403 124.959 22.3998 125.435 21.9913C125.844 21.6509 126.252 21.2424 126.252 20.6977C126.32 19.7445 126.32 18.7232 126.32 17.77C125.844 17.8381 125.367 17.702 124.89 17.77ZM145.588 11.7786C146.678 12.0509 147.631 12.7317 148.312 13.6169C148.856 14.3658 149.197 15.1828 149.333 16.0679C149.469 16.8849 149.537 17.77 149.469 18.6551C149.469 20.0849 148.993 21.4466 148.176 22.536C147.495 23.4211 146.405 23.9658 145.384 24.17C144.09 24.3743 142.661 24.17 141.503 23.353C140.55 22.6722 139.937 21.5828 139.597 20.4254C139.393 19.8126 139.393 19.2679 139.324 18.6551C139.324 17.6339 139.324 16.6807 139.461 15.6594C139.733 14.57 140.278 13.4807 141.095 12.6637C141.707 12.0509 142.524 11.7105 143.342 11.5743C144.159 11.5743 144.907 11.6424 145.588 11.7786ZM143.546 13.2083C142.661 13.3445 141.912 14.0254 141.639 14.8424C141.299 15.7275 141.299 16.6807 141.299 17.5658C141.299 18.4509 141.299 19.336 141.503 20.153C141.639 20.7658 141.776 21.3105 142.184 21.7871C142.524 22.2637 143.137 22.536 143.682 22.6041C143.886 22.6722 144.159 22.6722 144.363 22.6722H144.567H144.771C145.248 22.6041 145.656 22.4679 146.065 22.2637C146.542 21.9913 146.882 21.5147 147.086 20.97C147.29 20.3573 147.359 19.6764 147.427 19.0637C147.427 18.3147 147.495 17.5658 147.427 16.7488C147.359 15.9317 147.29 15.1147 146.882 14.4339C146.542 13.8892 146.065 13.4807 145.452 13.2083C144.839 13.0722 144.159 13.0722 143.546 13.2083ZM152.737 12.119C153.35 11.9828 153.895 11.7786 154.439 11.6424C154.78 12.2551 154.78 12.936 154.848 13.5488C155.12 13.3445 155.393 13.0722 155.665 12.7998C156.482 11.9828 157.707 11.5062 158.865 11.7105V11.8466C158.593 12.3913 158.456 13.0041 158.184 13.6169C158.184 13.753 157.98 13.6849 157.912 13.6849C157.435 13.6849 156.822 13.6849 156.414 13.9573C155.937 14.2296 155.597 14.57 155.256 14.9786C154.916 15.3871 154.984 15.9317 154.984 16.4083C154.984 17.0892 154.916 17.77 154.984 18.4509C154.984 20.2892 154.984 22.1956 154.984 24.0339C154.371 24.0339 153.69 24.0339 153.078 24.0339C153.078 21.9913 153.078 19.8807 153.078 17.8381C153.078 16.4083 153.078 15.0466 153.01 13.6169C152.942 13.0722 152.805 12.5956 152.737 12.119ZM106.848 12.119C107.393 11.9147 108.005 11.7105 108.55 11.7105C108.754 12.2551 108.89 12.8679 108.959 13.4126C109.435 13.0722 109.912 12.6637 110.388 12.3913C111.41 11.7786 112.635 11.37 113.724 11.7786C114.405 11.9828 115.018 12.3913 115.427 13.0041C115.767 13.4126 115.835 14.0254 115.903 14.502C116.039 16.4083 115.971 18.2466 115.971 20.153C115.971 21.4466 115.971 22.6722 115.971 23.8977C115.359 23.8977 114.678 23.8977 114.065 23.8977C114.065 21.8551 113.997 19.7445 113.997 17.702C113.997 16.5445 113.997 15.3871 113.861 14.2296C113.656 13.6849 113.18 13.2083 112.567 13.2083C112.159 13.2083 111.682 13.2083 111.273 13.3445C110.388 13.6849 109.571 14.2296 108.822 14.8424C108.822 17.8381 108.822 20.902 108.822 23.8977C108.278 23.8977 107.733 23.8977 107.188 23.8977C107.188 22.1956 107.12 20.4934 107.12 18.7232C107.12 16.953 107.12 15.1828 106.984 13.4126C107.12 13.0722 106.984 12.5956 106.848 12.119Z" fill="#ADADAD"/>
</g>
<defs>
<clipPath id="clip0_1053_1167">
<rect width="158.366" height="32" fill="white" transform="translate(0.431152)"/>
</clipPath>
</defs>
</svg>
